<svg xmlns="http://www.w3.org/2000/svg" viewBox="0 0 1600 1000" role="img" aria-label="Angel Character project cover">
  <defs>
    <linearGradient id="bg" x1="0" y1="0" x2="1" y2="1"><stop stop-color="#080611"/><stop offset="0.55" stop-color="#1c1238"/><stop offset="1" stop-color="#050505"/></linearGradient>
    <linearGradient id="glass" x1="0" y1="0" x2="1" y2="1"><stop stop-color="#ffffff" stop-opacity="0.22"/><stop offset="1" stop-color="#ffffff" stop-opacity="0.04"/></linearGradient>
    <linearGradient id="orange" x1="0" y1="0" x2="1" y2="1"><stop stop-color="#9d84ff"/><stop offset="1" stop-color="#ffd29a"/></linearGradient>
    <filter id="blur"><feGaussianBlur stdDeviation="34"/></filter>
    <filter id="shadow"><feDropShadow dx="0" dy="28" stdDeviation="30" flood-color="#000" flood-opacity="0.55"/></filter>
  </defs>
  <rect width="1600" height="1000" fill="url(#bg)"/>
  <g filter="url(#blur)" opacity="0.8"><circle cx="1280" cy="160" r="230" fill="#9d84ff" opacity="0.34"/><circle cx="240" cy="760" r="260" fill="#7f8cff" opacity="0.18"/></g>
  <g opacity="0.12" stroke="#fff" stroke-width="1"><path d="M0 160H1600M0 320H1600M0 480H1600M0 640H1600M0 800H1600M200 0V1000M400 0V1000M600 0V1000M800 0V1000M1000 0V1000M1200 0V1000M1400 0V1000"/></g>
  <g transform="translate(110 92)"><text fill="#9d84ff" font-family="Arial, sans-serif" font-size="42" font-weight="900">3D Visual</text><text y="72" fill="#fff" font-family="Arial, sans-serif" font-size="84" font-weight="900">Angel Character</text><text y="124" fill="#d8d2ca" font-family="Arial, sans-serif" font-size="28">Realistic portfolio placeholder · replace with your final case image</text></g>
  <g transform="translate(155 210)" filter="url(#shadow)">
  <rect width="1290" height="620" rx="44" fill="#0b0718" stroke="#fff" stroke-opacity="0.16"/>
  <g transform="translate(750 105)"><ellipse cx="220" cy="410" rx="280" ry="48" fill="#000" opacity="0.35"/><circle cx="230" cy="190" r="150" fill="$accent"/><circle cx="330" cy="118" r="76" fill="#fff" opacity="0.82"/><rect x="80" y="280" width="300" height="130" rx="65" fill="#8d7cff"/><circle cx="134" cy="318" r="32" fill="#fff" opacity="0.9"/><circle cx="326" cy="318" r="32" fill="#111"/></g>
  <g transform="translate(95 110)"><text fill="#fff" font-family="Arial, sans-serif" font-size="90" font-weight="900">3D Visual</text><text y="82" fill="$accent" font-family="Arial, sans-serif" font-size="44" font-weight="900">Character Interface</text><rect y="160" width="460" height="44" rx="22" fill="#fff" opacity="0.18"/><rect y="234" width="330" height="44" rx="22" fill="#fff" opacity="0.12"/><rect y="350" width="190" height="62" rx="31" fill="url(#orange)"/></g>
</g>
</svg>
