<svg xmlns="http://www.w3.org/2000/svg" viewBox="0 0 1600 1000" role="img" aria-label="Pop-up Island project cover">
  <defs>
    <linearGradient id="bg" x1="0" y1="0" x2="1" y2="1"><stop stop-color="#10233b"/><stop offset="0.55" stop-color="#31546e"/><stop offset="1" stop-color="#050505"/></linearGradient>
    <linearGradient id="glass" x1="0" y1="0" x2="1" y2="1"><stop stop-color="#ffffff" stop-opacity="0.22"/><stop offset="1" stop-color="#ffffff" stop-opacity="0.04"/></linearGradient>
    <linearGradient id="orange" x1="0" y1="0" x2="1" y2="1"><stop stop-color="#ff6a00"/><stop offset="1" stop-color="#ffd29a"/></linearGradient>
    <filter id="blur"><feGaussianBlur stdDeviation="34"/></filter>
    <filter id="shadow"><feDropShadow dx="0" dy="28" stdDeviation="30" flood-color="#000" flood-opacity="0.55"/></filter>
  </defs>
  <rect width="1600" height="1000" fill="url(#bg)"/>
  <g filter="url(#blur)" opacity="0.8"><circle cx="1280" cy="160" r="230" fill="#ff6a00" opacity="0.34"/><circle cx="240" cy="760" r="260" fill="#7f8cff" opacity="0.18"/></g>
  <g opacity="0.12" stroke="#fff" stroke-width="1"><path d="M0 160H1600M0 320H1600M0 480H1600M0 640H1600M0 800H1600M200 0V1000M400 0V1000M600 0V1000M800 0V1000M1000 0V1000M1200 0V1000M1400 0V1000"/></g>
  <g transform="translate(110 92)"><text fill="#ff6a00" font-family="Arial, sans-serif" font-size="42" font-weight="900">Campaign Page</text><text y="72" fill="#fff" font-family="Arial, sans-serif" font-size="84" font-weight="900">Pop-up Island</text><text y="124" fill="#d8d2ca" font-family="Arial, sans-serif" font-size="28">Realistic portfolio placeholder · replace with your final case image</text></g>
  <g transform="translate(150 250)" filter="url(#shadow)">
  <rect width="1300" height="560" rx="42" fill="#eaf5ff"/>
  <circle cx="1080" cy="170" r="116" fill="$accent" opacity="0.86"/><circle cx="950" cy="330" r="86" fill="#fff" opacity="0.8"/><circle cx="1170" cy="410" r="64" fill="#7d8cff" opacity="0.84"/>
  <rect x="90" y="88" width="430" height="60" rx="30" fill="#0a0a0a"/><rect x="90" y="188" width="540" height="46" rx="23" fill="#0a0a0a" opacity="0.18"/><rect x="90" y="264" width="390" height="46" rx="23" fill="#0a0a0a" opacity="0.12"/><rect x="90" y="380" width="210" height="64" rx="32" fill="url(#orange)"/>
  <g transform="translate(700 170)"><rect x="0" y="0" width="230" height="230" rx="42" fill="#fff" opacity="0.9"/><path d="M44 152c54-112 128-112 164 0" fill="none" stroke="$accent" stroke-width="24" stroke-linecap="round"/><circle cx="116" cy="88" r="36" fill="#0a0a0a"/></g>
</g>
</svg>
