<svg xmlns="http://www.w3.org/2000/svg" viewBox="0 0 1600 1000" role="img" aria-label="Cloud Studio project cover">
  <defs>
    <linearGradient id="bg" x1="0" y1="0" x2="1" y2="1"><stop stop-color="#0b0b0c"/><stop offset="0.55" stop-color="#2a1a10"/><stop offset="1" stop-color="#050505"/></linearGradient>
    <linearGradient id="glass" x1="0" y1="0" x2="1" y2="1"><stop stop-color="#ffffff" stop-opacity="0.22"/><stop offset="1" stop-color="#ffffff" stop-opacity="0.04"/></linearGradient>
    <linearGradient id="orange" x1="0" y1="0" x2="1" y2="1"><stop stop-color="#ff7a18"/><stop offset="1" stop-color="#ffd29a"/></linearGradient>
    <filter id="blur"><feGaussianBlur stdDeviation="34"/></filter>
    <filter id="shadow"><feDropShadow dx="0" dy="28" stdDeviation="30" flood-color="#000" flood-opacity="0.55"/></filter>
  </defs>
  <rect width="1600" height="1000" fill="url(#bg)"/>
  <g filter="url(#blur)" opacity="0.8"><circle cx="1280" cy="160" r="230" fill="#ff7a18" opacity="0.34"/><circle cx="240" cy="760" r="260" fill="#7f8cff" opacity="0.18"/></g>
  <g opacity="0.12" stroke="#fff" stroke-width="1"><path d="M0 160H1600M0 320H1600M0 480H1600M0 640H1600M0 800H1600M200 0V1000M400 0V1000M600 0V1000M800 0V1000M1000 0V1000M1200 0V1000M1400 0V1000"/></g>
  <g transform="translate(110 92)"><text fill="#ff7a18" font-family="Arial, sans-serif" font-size="42" font-weight="900">Product UI</text><text y="72" fill="#fff" font-family="Arial, sans-serif" font-size="84" font-weight="900">Cloud Studio</text><text y="124" fill="#d8d2ca" font-family="Arial, sans-serif" font-size="28">Realistic portfolio placeholder · replace with your final case image</text></g>
  <g transform="translate(250 210)" filter="url(#shadow)">
  <rect x="0" y="90" width="430" height="690" rx="52" fill="#09090a" stroke="#fff" stroke-opacity="0.2"/><rect x="34" y="140" width="362" height="590" rx="32" fill="#f4f1ea"/>
  <rect x="70" y="184" width="170" height="22" rx="11" fill="#111"/><rect x="70" y="236" width="288" height="160" rx="28" fill="url(#orange)"/><circle cx="312" cy="316" r="52" fill="#fff" opacity="0.34"/><rect x="70" y="430" width="132" height="132" rx="26" fill="#111"/><rect x="226" y="430" width="132" height="132" rx="26" fill="#ded8cc"/><rect x="70" y="592" width="288" height="28" rx="14" fill="#111" opacity="0.2"/><rect x="70" y="646" width="210" height="28" rx="14" fill="#111" opacity="0.16"/>
</g>
<g transform="translate(765 290)" filter="url(#shadow)"><rect width="565" height="390" rx="34" fill="#101113" stroke="#fff" stroke-opacity="0.18"/><rect x="42" y="44" width="188" height="138" rx="24" fill="url(#orange)"/><rect x="260" y="44" width="250" height="42" rx="21" fill="#fff" opacity="0.85"/><rect x="260" y="112" width="190" height="24" rx="12" fill="#fff" opacity="0.32"/><rect x="42" y="222" width="468" height="34" rx="17" fill="#fff" opacity="0.18"/><rect x="42" y="290" width="310" height="34" rx="17" fill="#fff" opacity="0.12"/></g>
</svg>
