<svg xmlns="http://www.w3.org/2000/svg" viewBox="0 0 1600 1000" role="img" aria-label="Brand System project cover">
  <defs>
    <linearGradient id="bg" x1="0" y1="0" x2="1" y2="1"><stop stop-color="#0a0a0a"/><stop offset="0.55" stop-color="#22201c"/><stop offset="1" stop-color="#050505"/></linearGradient>
    <linearGradient id="glass" x1="0" y1="0" x2="1" y2="1"><stop stop-color="#ffffff" stop-opacity="0.22"/><stop offset="1" stop-color="#ffffff" stop-opacity="0.04"/></linearGradient>
    <linearGradient id="orange" x1="0" y1="0" x2="1" y2="1"><stop stop-color="#ff6a00"/><stop offset="1" stop-color="#ffd29a"/></linearGradient>
    <filter id="blur"><feGaussianBlur stdDeviation="34"/></filter>
    <filter id="shadow"><feDropShadow dx="0" dy="28" stdDeviation="30" flood-color="#000" flood-opacity="0.55"/></filter>
  </defs>
  <rect width="1600" height="1000" fill="url(#bg)"/>
  <g filter="url(#blur)" opacity="0.8"><circle cx="1280" cy="160" r="230" fill="#ff6a00" opacity="0.34"/><circle cx="240" cy="760" r="260" fill="#7f8cff" opacity="0.18"/></g>
  <g opacity="0.12" stroke="#fff" stroke-width="1"><path d="M0 160H1600M0 320H1600M0 480H1600M0 640H1600M0 800H1600M200 0V1000M400 0V1000M600 0V1000M800 0V1000M1000 0V1000M1200 0V1000M1400 0V1000"/></g>
  <g transform="translate(110 92)"><text fill="#ff6a00" font-family="Arial, sans-serif" font-size="42" font-weight="900">Visual Identity</text><text y="72" fill="#fff" font-family="Arial, sans-serif" font-size="84" font-weight="900">Brand System</text><text y="124" fill="#d8d2ca" font-family="Arial, sans-serif" font-size="28">Realistic portfolio placeholder · replace with your final case image</text></g>
  <g transform="translate(160 245)" filter="url(#shadow)">
  <rect width="1280" height="600" rx="40" fill="#101010" stroke="#fff" stroke-opacity="0.16"/>
  <rect x="62" y="64" width="540" height="470" rx="32" fill="#e8e2d8"/><text x="110" y="176" fill="#111" font-family="Arial, sans-serif" font-size="86" font-weight="900">BRAND</text><text x="112" y="244" fill="$accent" font-family="Arial, sans-serif" font-size="44" font-weight="900">SYSTEM</text><rect x="112" y="318" width="150" height="150" rx="30" fill="#111"/><rect x="290" y="318" width="150" height="150" rx="30" fill="$accent"/><rect x="468" y="318" width="84" height="150" rx="30" fill="#fff"/>
  <g transform="translate(690 78)"><rect width="470" height="130" rx="26" fill="url(#glass)"/><rect y="170" width="470" height="130" rx="26" fill="url(#glass)"/><rect y="340" width="470" height="130" rx="26" fill="url(#glass)"/><circle cx="70" cy="65" r="34" fill="$accent"/><circle cx="70" cy="235" r="34" fill="#fff" opacity="0.72"/><circle cx="70" cy="405" r="34" fill="#7f8cff"/><rect x="130" y="46" width="230" height="20" rx="10" fill="#fff" opacity="0.76"/><rect x="130" y="216" width="290" height="20" rx="10" fill="#fff" opacity="0.52"/><rect x="130" y="386" width="210" height="20" rx="10" fill="#fff" opacity="0.4"/></g>
</g>
</svg>
